<?xml version="1.0" encoding="utf-8"?>
<!-- Generator: Adobe Illustrator 15.0.0, SVG Export Plug-In . SVG Version: 6.00 Build 0)  -->
<!DOCTYPE svg PUBLIC "-//W3C//DTD SVG 1.1//EN" "http://www.w3.org/Graphics/SVG/1.1/DTD/svg11.dtd">
<svg version="1.1" id="Layer_1" xmlns="http://www.w3.org/2000/svg" xmlns:xlink="http://www.w3.org/1999/xlink" x="0px" y="0px"
	 width="64px" height="64px" viewBox="0 0 64 64" enable-background="new 0 0 64 64" xml:space="preserve">
<rect x="8" y="8" display="none" fill="#0000FF" width="80" height="80"/>
<rect x="8" y="8" opacity="0.76" fill="#0000FF" enable-background="new    " width="16" height="16"/>
<rect x="8" y="24" opacity="0.76" fill="#00FF00" enable-background="new    " width="16" height="16"/>
<rect x="8" y="40" opacity="0.76" fill="#0000FF" enable-background="new    " width="16" height="16"/>
<rect x="8" y="56" opacity="0.76" fill="#00FFFF" enable-background="new    " width="16" height="16"/>
<rect x="24" y="8" opacity="0.76" fill="#FFFF00" enable-background="new    " width="16" height="16"/>
<rect x="24" y="24" opacity="0.76" fill="#FF0000" enable-background="new    " width="16" height="16"/>
<rect x="24" y="40" opacity="0.76" fill="#FFFF00" enable-background="new    " width="16" height="16"/>
<rect x="24" y="56" opacity="0.76" fill="#FF0000" enable-background="new    " width="16" height="16"/>
<rect x="40" y="8" opacity="0.76" fill="#0000FF" enable-background="new    " width="16" height="16"/>
<rect x="40" y="24" opacity="0.76" fill="#00FFFF" enable-background="new    " width="16" height="16"/>
<rect x="40" y="40" opacity="0.76" fill="#FF0000" enable-background="new    " width="16" height="16"/>
<rect x="40" y="56" opacity="0.76" fill="#0000FF" enable-background="new    " width="16" height="16"/>
<rect x="56" y="8" opacity="0.76" fill="#FF0000" enable-background="new    " width="16" height="16"/>
<rect x="56" y="24" opacity="0.76" fill="#0000FF" enable-background="new    " width="16" height="16"/>
<rect x="56" y="40" opacity="0.76" fill="#FF00FF" enable-background="new    " width="16" height="16"/>
<rect x="56" y="56" opacity="0.76" fill="#00FF00" enable-background="new    " width="16" height="16"/>
<rect x="16" y="16" opacity="0.76" fill="#0000FF" enable-background="new    " width="16" height="16"/>
<rect x="16" y="32" opacity="0.76" fill="#00FF00" enable-background="new    " width="16" height="16"/>
<rect x="16" y="48" opacity="0.76" fill="#0000FF" enable-background="new    " width="16" height="16"/>
<rect x="16" y="64" opacity="0.76" fill="#00FFFF" enable-background="new    " width="16" height="16"/>
<rect x="32" y="16" opacity="0.76" fill="#FFFF00" enable-background="new    " width="16" height="16"/>
<rect x="32" y="32" opacity="0.76" fill="#FF0000" enable-background="new    " width="16" height="16"/>
<rect x="16" opacity="0.76" fill="#FFFF00" enable-background="new    " width="16" height="16"/>
<rect opacity="0.76" fill="#FF0000" enable-background="new    " width="16" height="16"/>
<rect x="32" y="48" opacity="0.76" fill="#FFFF00" enable-background="new    " width="16" height="16"/>
<rect x="32" y="64" opacity="0.76" fill="#FF0000" enable-background="new    " width="16" height="16"/>
<rect x="48" y="16" opacity="0.76" fill="#0000FF" enable-background="new    " width="16" height="16"/>
<rect x="48" y="32" opacity="0.76" fill="#00FFFF" enable-background="new    " width="16" height="16"/>
<rect x="48" y="48" opacity="0.76" fill="#FF0000" enable-background="new    " width="16" height="16"/>
<rect x="48" y="64" opacity="0.76" fill="#0000FF" enable-background="new    " width="16" height="16"/>
<rect x="64" y="16" opacity="0.76" fill="#FF0000" enable-background="new    " width="16" height="16"/>
<rect x="64" y="32" opacity="0.76" fill="#0000FF" enable-background="new    " width="16" height="16"/>
<rect x="64" y="48" opacity="0.76" fill="#FF00FF" enable-background="new    " width="16" height="16"/>
<rect x="64" y="64" opacity="0.76" fill="#00FF00" enable-background="new    " width="16" height="16"/>
<rect y="16" opacity="0.76" fill="#00FFFF" enable-background="new    " width="16" height="16"/>
<rect y="32" opacity="0.76" fill="#FF0000" enable-background="new    " width="16" height="16"/>
<rect y="64" opacity="0.76" fill="#0000FF" enable-background="new    " width="16" height="16"/>
<rect y="48" opacity="0.76" fill="#00FF00" enable-background="new    " width="16" height="16"/>
<rect x="32" opacity="0.76" fill="#0000FF" enable-background="new    " width="16" height="16"/>
<rect x="48" opacity="0.76" fill="#FF00FF" enable-background="new    " width="16" height="16"/>
<rect x="64" opacity="0.76" fill="#00FF00" enable-background="new    " width="16" height="16"/>
</svg>
