
<svg version="1.0"  xmlns="http://www.w3.org/2000/svg" xmlns:xlink="http://www.w3.org/1999/xlink" xmlns:a="http://ns.adobe.com/AdobeSVGViewerExtensions/3.0/"   x="0px" y="0px" width="64px" height="64px" viewBox="8 8 64 64" overflow="visible" enable-background="new 8 8 64 64"     xml:space="preserve"><defs></defs><rect x="8" y="8" display="none" fill="#0000FF" width="80" height="80"/><rect x="8" y="8" opacity="0.76" fill="#0000FF" width="16" height="16"/><rect x="8" y="24" opacity="0.76" fill="#00FF00" width="16" height="16"/><rect x="8" y="40" opacity="0.76" fill="#0000FF" width="16" height="16"/><rect x="8" y="56" opacity="0.76" fill="#00FFFF" width="16" height="16"/><rect x="24" y="8" opacity="0.76" fill="#FFFF00" width="16" height="16"/><rect x="24" y="24" opacity="0.76" fill="#FF0000" width="16" height="16"/><rect x="24" y="40" opacity="0.76" fill="#FFFF00" width="16" height="16"/><rect x="24" y="56" opacity="0.76" fill="#FF0000" width="16" height="16"/><rect x="40" y="8" opacity="0.76" fill="#0000FF" width="16" height="16"/><rect x="40" y="24" opacity="0.76" fill="#00FFFF" width="16" height="16"/><rect x="40" y="40" opacity="0.76" fill="#FF0000" width="16" height="16"/><rect x="40" y="56" opacity="0.76" fill="#0000FF" width="16" height="16"/><rect x="56" y="8" opacity="0.76" fill="#FF0000" width="16" height="16"/><rect x="56" y="24" opacity="0.76" fill="#0000FF" width="16" height="16"/><rect x="56" y="40" opacity="0.76" fill="#FF00FF" width="16" height="16"/><rect x="56" y="56" opacity="0.76" fill="#00FF00" width="16" height="16"/><rect x="16" y="16" opacity="0.76" fill="#0000FF" width="16" height="16"/><rect x="16" y="32" opacity="0.76" fill="#00FF00" width="16" height="16"/><rect x="16" y="48" opacity="0.76" fill="#0000FF" width="16" height="16"/><rect x="16" y="64" opacity="0.76" fill="#00FFFF" width="16" height="16"/><rect x="32" y="16" opacity="0.76" fill="#FFFF00" width="16" height="16"/><rect x="32" y="32" opacity="0.76" fill="#FF0000" width="16" height="16"/><rect x="16" opacity="0.76" fill="#FFFF00" width="16" height="16"/><rect opacity="0.76" fill="#FF0000" width="16" height="16"/><rect x="32" y="48" opacity="0.76" fill="#FFFF00" width="16" height="16"/><rect x="32" y="64" opacity="0.76" fill="#FF0000" width="16" height="16"/><rect x="48" y="16" opacity="0.76" fill="#0000FF" width="16" height="16"/><rect x="48" y="32" opacity="0.76" fill="#00FFFF" width="16" height="16"/><rect x="48" y="48" opacity="0.76" fill="#FF0000" width="16" height="16"/><rect x="48" y="64" opacity="0.76" fill="#0000FF" width="16" height="16"/><rect x="64" y="16" opacity="0.76" fill="#FF0000" width="16" height="16"/><rect x="64" y="32" opacity="0.76" fill="#0000FF" width="16" height="16"/><rect x="64" y="48" opacity="0.76" fill="#FF00FF" width="16" height="16"/><rect x="64" y="64" opacity="0.76" fill="#00FF00" width="16" height="16"/><rect y="16" opacity="0.76" fill="#00FFFF" width="16" height="16"/><rect y="32" opacity="0.76" fill="#FF0000" width="16" height="16"/><rect y="64" opacity="0.76" fill="#0000FF" width="16" height="16"/><rect y="48" opacity="0.76" fill="#00FF00" width="16" height="16"/><rect x="32" opacity="0.76" fill="#0000FF" width="16" height="16"/><rect x="48" opacity="0.76" fill="#FF00FF" width="16" height="16"/><rect x="64" opacity="0.76" fill="#00FF00" width="16" height="16"/></svg>