<?xml version="1.0" encoding="utf-8"?><!-- Generator: Adobe Illustrator 15.0.0, SVG Export Plug-In . SVG Version: 6.00 Build 0)  --><!DOCTYPE svg PUBLIC "-//W3C//DTD SVG 1.0//EN" "http://www.w3.org/TR/2001/REC-SVG-20010904/DTD/svg10.dtd"><svg version="1.0" id="Layer_1" xmlns="http://www.w3.org/2000/svg" xmlns:xlink="http://www.w3.org/1999/xlink" x="0px" y="0px"	 width="600px" height="370px" viewBox="0 0 600 370" enable-background="new 0 0 600 370" xml:space="preserve"><g>	<path d="M42.618,140.255h12.12l2.64-73.677H45.738v-2.64h15.359l28.079,62.758l28.079-62.758h15v2.64h-11.639l2.64,73.677h12.12		v2.64h-25.559v-2.64h10.56l-2.52-70.917l-28.199,62.757h-1.2L60.257,69.098l-2.64,71.157h10.56v2.64H42.618V140.255z"/>	<path d="M143.65,103.416c0-22.559,16.919-40.678,39.238-40.678c22.439,0,39.238,18,39.238,40.678		c0,22.559-16.919,40.679-39.238,40.679C160.45,144.095,143.65,126.095,143.65,103.416z M218.887,103.416		c0-21.239-15.239-38.038-35.999-38.038s-35.999,16.679-35.999,38.038c0,21.239,15.239,38.039,35.999,38.039		S218.887,124.775,218.887,103.416z"/>	<path d="M234.242,140.255h11.399V66.578h-11.399v-2.64h29.399c16.079,0,26.279,9.24,26.279,21.839		c0,11.759-7.919,19.439-20.159,21.599l20.759,32.879h9.6v2.64h-11.64l-21.839-35.159c-1.32,0.12-3,0.24-4.56,0.24		c-5.4,0-9.6,0-13.319-0.12v32.399H260.4v2.64h-26.159V140.255z M286.68,85.777c0-11.399-8.76-19.199-23.279-19.199h-14.639v38.638		c4.08,0.12,8.64,0.12,13.439,0.12C276.96,105.336,286.68,98.616,286.68,85.777z"/>	<path d="M307.075,104.376c0-25.319,18.599-41.518,39.718-41.638c17.279,0,29.159,10.08,29.159,17.759c0,2.52-1.56,3.96-3.479,3.96		s-3.12-1.32-3.12-3.24c0-1.56,0.72-3,2.52-3.84c-2.399-5.64-11.999-11.879-25.199-11.879c-22.198,0-36.479,17.639-36.479,38.878		c0,22.319,15.359,37.079,35.039,37.079c9.72,0,19.439-3.24,28.679-10.68v-20.639h-25.439v-2.64h28.439v35.398h-3v-9		c-8.88,6.839-17.64,10.2-28.799,10.2C324.834,144.095,307.075,129.095,307.075,104.376z"/>	<path d="M388.548,140.255h9.36l27.479-73.677h-10.8v-2.64h27.959v2.64h-10.68l27.359,73.677h9.479v2.64h-24.119v-2.64h11.279		l-10.079-27.479h-34.438l-10.2,27.479h11.52v2.64h-24.119V140.255z M444.826,110.136l-16.199-43.918l-16.32,43.918H444.826z"/>	<path d="M489.819,69.458v70.797h11.879v2.64h-26.159v-2.64h11.4V66.578h-11.4v-2.64h13.92l52.318,73.197V66.578h-11.64v-2.64		h26.038v2.64h-11.399v76.677h-2.159L489.819,69.458z"/></g><g>	<path d="M41.889,278.055h16.14V173.732h-16.14v-3.738h77.131v24.466h-4.248v-20.729H62.446v48.933h41.114v3.908H62.446v51.481		h52.326v-20.729h4.248v24.467H41.889V278.055z"/>	<path d="M138.22,261.574c0-3.908,2.039-6.117,4.757-6.117c2.208,0,4.417,2.039,4.417,4.588c0,2.209-1.529,4.418-3.908,5.268		c2.888,7.306,13.591,14.271,28.542,14.271c18.178,0,29.561-10.534,29.561-25.315c0-15.462-14.441-22.088-29.051-28.035		c-14.951-5.946-30.241-12.913-30.241-30.243c0-15.971,13.761-27.525,31.43-27.525c16.989,0,30.241,10.705,30.241,20.389		c0,3.397-2.039,5.606-4.587,5.606c-2.208,0-4.417-1.869-4.417-4.418c0-2.378,1.189-4.077,3.398-5.267		c-2.718-6.966-13.421-12.573-24.804-12.573c-15.63,0-27.183,10.194-27.183,23.447c0,15.461,14.441,21.238,29.052,27.185		c14.95,5.947,30.41,13.763,30.41,31.094c0,17.67-14.271,29.394-34.148,29.394C151.302,283.322,138.22,271.259,138.22,261.574z"/>	<path d="M300.637,293.007c-7.985-5.438-14.611-7.985-25.314-9.854c-12.912-2.209-23.275-6.966-31.43-14.103		c-11.213-9.854-18.688-24.807-18.688-43.156c0-31.942,23.955-57.598,55.555-57.598c31.77,0,55.555,25.486,55.555,57.598		c0,30.583-21.066,54.37-49.438,56.749c6.116,1.529,10.703,3.738,19.197,9.345c10.533,7.306,15.121,9.685,23.785,9.685		c4.417,0,7.815-1.189,12.062-3.737l1.868,3.228c-4.927,2.889-9.514,4.248-13.931,4.248		C319.665,305.41,313.379,301.502,300.637,293.007z M331.728,225.894c0-30.073-21.576-53.86-50.968-53.86		c-29.391,0-50.967,23.617-50.967,53.86c0,17.501,6.116,31.263,16.819,40.777c8.834,7.646,21.746,13.083,34.488,13.083		C310.151,279.754,331.728,256.137,331.728,225.894z"/>	<path d="M367.068,243.225v-69.492h-16.14v-3.738h37.036v3.738h-16.479v69.152c0,23.956,11.213,36.869,32.789,36.869		s32.789-12.573,32.789-36.869v-69.152h-16.649v-3.738h37.037v3.738h-16.141v69.492c0,25.655-13.081,40.268-37.206,40.268		C380.15,283.492,367.068,268.88,367.068,243.225z"/>	<path d="M469.856,278.055h16.14V173.732h-16.14v-3.738h77.13v24.466h-4.247v-20.729h-52.326v48.933h41.113v3.908h-41.113v51.481		h52.326v-20.729h4.247v24.467h-77.13V278.055z"/></g></svg>